<svg width="350" height="27" viewBox="0 0 350 27" fill="none" xmlns="http://www.w3.org/2000/svg">
<path fill-rule="evenodd" clip-rule="evenodd" d="M10.6996 0.167357L13.5037 6.48972L20.5138 7.38229C20.809 7.45667 20.8827 7.7542 20.6614 7.97734L15.6436 12.6633L16.9718 19.5807C16.9718 19.8783 16.6767 20.1014 16.4553 19.9526L10.4783 16.5311L4.35365 19.9526C4.05848 20.1014 3.83711 19.8783 3.83711 19.5807L5.23913 12.8121L0.0737906 7.97734C-0.0737906 7.7542 -2.98023e-08 7.45667 0.295163 7.38229L7.0839 6.63849L10.1093 0.167357C10.2569 -0.0557857 10.5521 -0.0557857 10.6996 0.167357Z" fill="#FFF4CB"/>
<path fill-rule="evenodd" clip-rule="evenodd" d="M34.6996 0.167357L37.5037 6.48972L44.5138 7.38229C44.809 7.45667 44.8827 7.7542 44.6614 7.97734L39.6436 12.6633L40.9718 19.5807C40.9718 19.8783 40.6767 20.1014 40.4553 19.9526L34.4783 16.5311L28.3537 19.9526C28.0585 20.1014 27.8371 19.8783 27.8371 19.5807L29.2391 12.8121L24.0738 7.97734C23.9262 7.7542 24 7.45667 24.2952 7.38229L31.0839 6.63849L34.1093 0.167357C34.2569 -0.0557857 34.5521 -0.0557857 34.6996 0.167357Z" fill="#FFF4CB"/>
<path fill-rule="evenodd" clip-rule="evenodd" d="M58.6996 0.167357L61.5037 6.48972L68.5138 7.38229C68.809 7.45667 68.8827 7.7542 68.6614 7.97734L63.6436 12.6633L64.9718 19.5807C64.9718 19.8783 64.6767 20.1014 64.4553 19.9526L58.4783 16.5311L52.3537 19.9526C52.0585 20.1014 51.8371 19.8783 51.8371 19.5807L53.2391 12.8121L48.0738 7.97734C47.9262 7.7542 48 7.45667 48.2952 7.38229L55.0839 6.63849L58.1093 0.167357C58.2569 -0.0557857 58.5521 -0.0557857 58.6996 0.167357Z" fill="#FFF4CB"/>
<path fill-rule="evenodd" clip-rule="evenodd" d="M82.6996 0.167357L85.5037 6.48972L92.5138 7.38229C92.809 7.45667 92.8827 7.7542 92.6614 7.97734L87.6436 12.6633L88.9718 19.5807C88.9718 19.8783 88.6767 20.1014 88.4553 19.9526L82.4783 16.5311L76.3537 19.9526C76.0585 20.1014 75.8371 19.8783 75.8371 19.5807L77.2391 12.8121L72.0738 7.97734C71.9262 7.7542 72 7.45667 72.2952 7.38229L79.0839 6.63849L82.1093 0.167357C82.2569 -0.0557857 82.5521 -0.0557857 82.6996 0.167357Z" fill="#FFF4CB"/>
<path fill-rule="evenodd" clip-rule="evenodd" d="M106.7 0.167357L109.504 6.48972L116.514 7.38229C116.809 7.45667 116.883 7.7542 116.661 7.97734L111.644 12.6633L112.972 19.5807C112.972 19.8783 112.677 20.1014 112.455 19.9526L106.478 16.5311L100.354 19.9526C100.058 20.1014 99.8371 19.8783 99.8371 19.5807L101.239 12.8121L96.0738 7.97734C95.9262 7.7542 96 7.45667 96.2952 7.38229L103.084 6.63849L106.109 0.167357C106.257 -0.0557857 106.552 -0.0557857 106.7 0.167357Z" fill="#FFF4CB"/>
</svg>
