<svg width="162" height="121" viewBox="0 0 162 121" fill="none" xmlns="http://www.w3.org/2000/svg">
<g clip-path="url(#clip0_0_265)">
<path d="M143.093 0H18.0577C13.2357 0.0329722 8.63214 1.16369 5.25207 3.14532C1.87199 5.12696 -0.0101012 7.79853 0.0166864 10.5768V19.9325H8.19441V10.6057C8.19409 9.09047 9.22843 7.63601 11.074 6.55654C12.9195 5.47707 15.428 4.85921 18.0577 4.83648H143.093C145.725 4.85671 148.238 5.47347 150.087 6.55321C151.937 7.63294 152.973 9.08884 152.973 10.6057V89.9703H8.1777V74.8071H0V94.7782H161.117V10.6153C161.162 7.83199 159.29 5.15199 155.911 3.16231C152.533 1.17263 147.924 0.0355011 143.093 0Z" fill="#AAAAAA"/>
<path d="M8.19434 27.712H0.0166016V67.0674H8.19434V27.712Z" fill="#AAAAAA"/>
<path d="M34.0289 116.193H28.0875V98.3468H19.9099V121.001H39.7032L54.106 98.3468L45.3775 98.3661L34.0289 116.193Z" fill="#AAAAAA"/>
<path d="M133.046 116.193H127.105L115.756 98.3468H107.028L121.431 121.001H141.224V98.3468H133.063L133.046 116.193Z" fill="#AAAAAA"/>
<path d="M56.6265 47.3938C56.7251 50.1099 58.213 52.7488 60.9037 54.9794C63.5945 57.2103 67.368 58.9338 71.7524 59.934C76.1361 60.9345 80.9346 61.1667 85.547 60.6021C90.1595 60.0376 94.3793 58.7013 97.6789 56.7607C100.978 54.8198 103.21 52.3613 104.094 49.6928C104.979 47.0248 104.476 44.2652 102.65 41.7609C100.823 39.2562 97.754 37.1181 93.8272 35.6144C89.9003 34.1106 85.2904 33.3081 80.5756 33.3075C74.1617 33.3532 68.04 34.8611 63.5517 37.5012C59.0631 40.1414 56.573 43.6984 56.6265 47.3938ZM78.1222 36.2883V45.4707H83.0289V36.2883C87.826 36.6473 92.2065 38.0447 95.28 40.197C98.3534 42.3493 99.8905 45.0948 99.5782 47.8759C99.2658 50.6574 97.1281 53.2661 93.5984 55.1722C90.0694 57.0784 85.4129 58.139 80.5756 58.139C75.7376 58.139 71.0817 57.0784 67.5521 55.1722C64.023 53.2661 61.8851 50.6574 61.5728 47.8759C61.2606 45.0948 62.7973 42.3493 65.8711 40.197C68.9446 38.0447 73.3251 36.6473 78.1222 36.2883Z" fill="#AAAAAA"/>
<path d="M83.0289 23.7019H78.1223V29.2018H83.0289V23.7019Z" fill="#AAAAAA"/>
<path d="M69.1099 24.6357L64.5034 25.6165L67.6907 30.7895L72.2974 29.7992L69.1099 24.6357Z" fill="#AAAAAA"/>
<path d="M52.8042 30.1638L58.829 34.3849L62.5841 32.5291L56.576 28.3176L52.8042 30.1638Z" fill="#AAAAAA"/>
<path d="M44.4765 36.789L52.5707 39.539L55.024 37.0486L46.9297 34.2986L44.4765 36.789Z" fill="#AAAAAA"/>
<path d="M40.4882 44.6925L49.7005 45.6541L50.5517 42.808L41.3393 41.8558L40.4882 44.6925Z" fill="#AAAAAA"/>
<path d="M40.4882 50.0868L41.3393 52.9231L50.5517 51.9714L49.7005 49.1252L40.4882 50.0868Z" fill="#AAAAAA"/>
<path d="M55.024 57.7309L52.5707 55.2406L44.4765 57.9907L46.9131 60.481L55.024 57.7309Z" fill="#AAAAAA"/>
<path d="M62.5674 62.2499L58.8124 60.4039L52.8042 64.6155L56.5593 66.4713L62.5674 62.2499Z" fill="#AAAAAA"/>
<path d="M69.1098 70.145L72.2973 64.9817L67.6914 63.991L64.4868 69.1641L69.1098 70.145Z" fill="#AAAAAA"/>
<path d="M83.0289 65.5862H78.1223V71.086H83.0289V65.5862Z" fill="#AAAAAA"/>
<path d="M92.0406 70.145L96.6473 69.1641L93.4591 63.991L88.8531 64.9817L92.0406 70.145Z" fill="#AAAAAA"/>
<path d="M98.566 62.2598L104.591 66.4713L108.346 64.6155L102.321 60.4039L98.566 62.2598Z" fill="#AAAAAA"/>
<path d="M116.674 57.9907L108.58 55.2406L106.127 57.7408L114.221 60.4905L116.674 57.9907Z" fill="#AAAAAA"/>
<path d="M120.663 50.087L111.45 49.1353L110.599 51.9716L119.811 52.9237L120.663 50.087Z" fill="#AAAAAA"/>
<path d="M119.811 41.8558L110.599 42.8174L111.45 45.6541L120.663 44.702L119.811 41.8558Z" fill="#AAAAAA"/>
<path d="M106.127 37.0486L108.58 39.5485L116.691 36.7986L114.238 34.2986L106.127 37.0486Z" fill="#AAAAAA"/>
<path d="M98.5828 32.5291L102.338 34.3849L108.346 30.1734L104.591 28.3176L98.5828 32.5291Z" fill="#AAAAAA"/>
<path d="M92.0575 24.6357L88.8531 29.8088L93.4591 30.7895L96.6635 25.6261L92.0575 24.6357Z" fill="#AAAAAA"/>
</g>
<defs>
<clipPath id="clip0_0_265">
<rect width="162" height="121" fill="white"/>
</clipPath>
</defs>
</svg>
