<svg width="162" height="120" viewBox="0 0 162 120" fill="none" xmlns="http://www.w3.org/2000/svg">
<path d="M161.998 40.8595L162 20.8947L130.45 20.7932L130.433 25.1746L149.409 25.2359L115.602 41.0241L115.604 19.0191C115.604 19.0172 115.604 19.0172 115.604 19.0153C115.602 18.2413 115.142 17.5248 114.389 17.132L82.1595 0.303422C81.3807 -0.102733 80.416 -0.100816 79.6412 0.307255L47.6154 17.1339C46.865 17.5286 46.4041 18.2432 46.4041 19.0172L46.4021 41.0241L13.3096 25.2264L31.5757 25.1708L31.5584 20.7893L4.19062 20.8736L3.65625 20.6188L3.49832 20.8775L0.00865238 20.889L0.00649013 40.8558H4.95432L4.95647 26.2188L46.3996 45.9998L46.3976 73.3443L44.2276 74.3578L46.3976 77.9977V77.9995L44.2276 74.3578L4.94784 92.7018L4.94999 78.4593H0.00216227L0 98.4262L31.5497 98.5277L31.5671 94.1461L12.5935 94.0848L46.3956 78.2984L46.3932 100.302C46.3932 101.078 46.8561 101.794 47.6114 102.189L79.8405 119.017C80.2277 119.221 80.6626 119.322 81.0972 119.322C81.5342 119.322 81.9716 119.219 82.3588 119.016L114.382 102.191C115.133 101.796 115.594 101.082 115.594 100.308L115.596 79.0379L149.586 95.2651L130.422 95.3245L130.44 99.7058L161.989 99.6083L161.992 79.6415H157.044L157.041 93.8472L117.783 75.1069L115.594 74.0608L115.596 45.9804L157.048 26.6211L157.046 40.8632H161.998V40.8595ZM80.9048 4.73473L108.27 19.0249L81.1017 33.2977L53.7338 19.0095L80.9048 4.73473ZM51.3455 75.9862L65.4492 69.3994L60.2891 66.8573L51.3475 71.0336L51.352 22.8488L78.6352 37.0931L78.6287 113.295L51.3455 99.0488V75.9862ZM110.652 76.6718L110.65 99.0565L83.5722 113.284L83.5786 37.0909L110.657 22.8661L110.652 71.6965L100.348 66.7766L95.5646 69.4705L110.652 76.6718Z" fill="#AAAAAA"/>
</svg>
