<svg width="162" height="121" viewBox="0 0 162 121" fill="none" xmlns="http://www.w3.org/2000/svg">
<g clip-path="url(#clip0_0_289)">
<path d="M133.191 25.6543L145.334 15.5904L139.85 12.5072L127.664 22.5712C114.905 15.9762 99.4127 12.1738 83.3004 11.6831V4.84775H96.7486V0H62.8018V4.84775H76.25V11.6831C33.8744 12.9726 1.6787e-05 36.8623 1.6787e-05 66.0845C-0.009194 75.7551 3.77213 85.2589 10.9675 93.6491L17.0895 91.1958C10.537 83.552 7.09571 74.8941 7.10856 66.0845C7.10856 38.7238 39.7354 16.4727 79.8191 16.4727C119.902 16.4727 152.529 38.7722 152.529 66.0944C152.529 93.4162 119.873 115.745 79.79 115.745C64.8201 115.73 50.2317 112.588 38.067 106.757H53.4592V101.91H25.6198V121H32.7284V110.063C46.3107 116.867 62.8158 120.56 79.79 120.593C123.79 120.593 159.579 96.1602 159.579 66.1329C159.618 58.5322 157.292 51.0091 152.749 44.0406C148.207 37.0724 141.546 30.8112 133.191 25.6543Z" fill="#AAAAAA"/>
<path d="M83.3004 66.085H83.344V25.9164H76.2355V63.6612H31.3938V68.5088H83.3004V66.085Z" fill="#AAAAAA"/>
</g>
<defs>
<clipPath id="clip0_0_289">
<rect width="162" height="121" fill="white"/>
</clipPath>
</defs>
</svg>
